# xmcd
#
# Track frame offsets:
#	182
#	13310
#	24962
#	36995
#	68087
#	76745
#	90482
#	104227
#	114212
#	125890
#	135260
#	153850
#	167687
#	182820
#	198030
#	213055
#	225235
#	237200
#	248930
#	259717
#
# Disc length: 3592
#
# Revision: 2
# Processed by: cddbd v1.5.1PL0 Copyright (c) Steve Scherf et al.
# Submitted via: CDValet v3.31 - Copyright (c) 1997 Greg Leichner
# Normalized: r1:DSETVAR1
#
DISCID=f80e0614
DTITLE=Various Artist - Soul Masters
DYEAR=1900
DGENRE=
TTITLE0=Three Degrees - When Will I See You Again
TTITLE1=Percy Sledge - Sittin' On The Dock Of The Bay
TTITLE2=Fantastics - Something Old, Something New
TTITLE3=Sister Sledge - We Are Family
TTITLE4=Dee Clark - Hey Little Girl
TTITLE5=Jimmy Ruffin - What Become Of The Broken Hearted
TTITLE6=Clarence Carter - Patches
TTITLE7=Gladys Knight - Operator
TTITLE8=Martha and The Vandellas - Dancing In The Streets
TTITLE9=Drifters - Saturday Night At The Movies
TTITLE10=Freda Payne - Band Of Gold
TTITLE11=Eddie Floyd - Knock On Wood
TTITLE12=Ben E. King - Supernatural (Part 1)
TTITLE13=Platters - The Great Pretender
TTITLE14=Detroit Emeralds - Feel The Need In Me
TTITLE15=Doris Troy - Just One Look
TTITLE16=Shirelles - Will You Still Love Me Tomorrow
TTITLE17=Mel and Tim - Backfield In Motion
TTITLE18=Rufus Thomas - Walking The Dog
TTITLE19=Betty Everett - It's In His Kiss
EXTD=
EXTT0=
EXTT1=
EXTT2=
EXTT3=
EXTT4=
EXTT5=
EXTT6=
EXTT7=
EXTT8=
EXTT9=
EXTT10=
EXTT11=
EXTT12=
EXTT13=
EXTT14=
EXTT15=
EXTT16=
EXTT17=
EXTT18=
EXTT19=
PLAYORDER=
